<?xml version="1.0" encoding="utf-8"?>
<!-- Generator: Adobe Illustrator 26.0.1, SVG Export Plug-In . SVG Version: 6.00 Build 0)  -->
<svg version="1.1" xmlns="http://www.w3.org/2000/svg" xmlns:xlink="http://www.w3.org/1999/xlink" x="0px" y="0px"
	 viewBox="0 0 2000 2000" style="enable-background:new 0 0 2000 2000;" xml:space="preserve">
<style type="text/css">
	.st0{fill:#414288;}
	.st1{fill:#FDECEF;}
	.st2{fill:#0F110C;}
	.st3{fill:#839788;}
	.st4{fill:#A31621;}
	.st5{font-family:'Didot-HTF-B06-Bold';}
	.st6{font-size:193.2264px;}
	.st7{letter-spacing:-22.98;}
	.st8{font-family:'Didot-HTF-B06-Bold-Ital';}
	.st9{fill:#FFFFFF;}
	.st10{letter-spacing:8.84;}
</style>
<g id="Camada_1">
</g>
<g id="Camada_2">
</g>
<g id="Camada_3">
</g>
<g id="Camada_4">
	<path class="st4" d="M1853.38,1882.75H146.62c-16.22,0-29.38-13.15-29.38-29.38V146.62c0-16.22,13.15-29.38,29.38-29.38h1706.75
		c16.22,0,29.38,13.15,29.38,29.38v1706.75C1882.75,1869.6,1869.6,1882.75,1853.38,1882.75z"/>
	<g>
		<g>
			<rect x="321.71" y="1218.25" class="st1" width="1343.31" height="22.31"/>
			<polygon class="st1" points="1374.08,539.91 1640.98,804.43 1652.26,531.27 			"/>
			<polygon class="st1" points="1391.2,990.61 1443.96,812.9 1311.45,874.39 			"/>
			<polygon class="st2" points="780.58,1010.71 675.34,1170.61 321.71,532.22 515.52,532.22 			"/>
			<polygon class="st2" points="1117.21,1010.71 1011.97,1170.61 658.33,532.22 852.15,532.22 			"/>
			<polygon class="st1" points="928.24,1016.75 1011.63,1170.61 1428.07,532.22 1234.26,532.22 			"/>
			<polygon class="st1" points="1241.69,532.22 1252.11,674.93 1606.76,641.3 1628.26,532.22 			"/>
			<polygon class="st1" points="586.77,1010.71 675.34,1170.61 1102.07,532.22 908.26,532.22 			"/>
		</g>
		<text transform="matrix(1.1314 0 0 1 377.6848 1468.7295)"><tspan x="0" y="0" class="st1 st5 st6 st7">W</tspan><tspan x="168.69" y="0" class="st1 st8 st6 st7">F</tspan><tspan x="257.76" y="0" class="st9 st5 st6 st10">  </tspan><tspan x="341.23" y="0" class="st5 st6 st10">DESIGN</tspan></text>
	</g>
</g>
<g id="Camada_5">
</g>
<g id="Camada_6">
</g>
</svg>
